<svg width="800" height="800" viewBox="0 0 32 32" xmlns="http://www.w3.org/2000/svg">
    <path d="m29.482 8.624-10-5.5a1 1 0 0 0-.964 0l-10 5.5a1 1 0 0 0 0 1.752L18 15.591V26.31l-3.036-1.67L14 26.391l4.518 2.485a.998.998 0 0 0 .964 0l10-5.5A1 1 0 0 0 30 22.5v-13a1 1 0 0 0-.518-.876ZM19 5.142 26.925 9.5 19 13.858 11.075 9.5Zm9 16.767-8 4.4V15.59l8-4.4Z"/>
    <path d="M10 16H2v-2h8zM12 24H4v-2h8zM14 20H6v-2h8z"/>
    <path data-name="&lt;Transparent Rectangle&gt;" style="fill:none" d="M0 0h32v32H0z"/>
</svg>
